<svg width="17" height="13" viewBox="0 0 17 13" fill="none" xmlns="http://www.w3.org/2000/svg">
<path d="M16.2723 1.66965C15.8236 2.3259 15.2812 2.88505 14.645 3.3471C14.6517 3.44085 14.6551 3.58148 14.6551 3.76898C14.6551 4.63951 14.5278 5.51005 14.2734 6.38058C14.0189 7.24442 13.6305 8.07478 13.1082 8.87166C12.5926 9.66853 11.9765 10.375 11.26 10.9911C10.5435 11.6005 9.67962 12.0893 8.66846 12.4576C7.6573 12.8192 6.57582 13 5.42404 13C3.60931 13 1.94859 12.5145 0.441895 11.5435C0.67627 11.5703 0.93743 11.5837 1.22538 11.5837C2.73207 11.5837 4.07471 11.1217 5.25328 10.1975C4.55015 10.1842 3.92069 9.96987 3.36489 9.55469C2.80908 9.13282 2.42739 8.5971 2.2198 7.94755C2.44078 7.98103 2.64502 7.99777 2.83252 7.99777C3.12047 7.99777 3.40506 7.96094 3.68631 7.88728C2.93631 7.73326 2.31355 7.36161 1.81801 6.77233C1.32917 6.17634 1.08475 5.48661 1.08475 4.70313V4.66295C1.54011 4.91741 2.02895 5.05469 2.55127 5.07478C2.10931 4.78014 1.75774 4.39509 1.49658 3.91965C1.23542 3.4442 1.10484 2.92858 1.10484 2.37277C1.10484 1.78349 1.25216 1.23773 1.54681 0.735494C2.35707 1.73326 3.34145 2.53349 4.49993 3.13616C5.66511 3.73215 6.91064 4.06362 8.23654 4.13058C8.18297 3.87612 8.15618 3.62835 8.15618 3.38728C8.15618 2.48996 8.47091 1.72657 9.10038 1.0971C9.73654 0.460942 10.5033 0.14286 11.4006 0.14286C12.3381 0.14286 13.1283 0.484379 13.7711 1.16741C14.501 1.02679 15.1874 0.765628 15.8303 0.383932C15.5825 1.15402 15.1071 1.75 14.4039 2.17188C15.0267 2.10491 15.6495 1.9375 16.2723 1.66965Z" fill="white"/>
</svg>
