<svg width="58" height="60" viewBox="0 0 58 60" fill="none" xmlns="http://www.w3.org/2000/svg">
<path d="M52.7099 6.50847C52.5873 6.50349 52.4646 6.50266 52.3419 6.50612H47.7153V2.53016C47.7155 0.939783 46.1973 0 44.6069 0H40.3419C38.7516 0 37.5949 0.939783 37.5949 2.53016V6.50598H20.2455V2.53016C20.2455 0.939783 19.0889 0 17.4985 0H13.2334C11.6431 0 10.125 0.939783 10.125 2.53016V6.50598H5.49856C2.54527 6.42365 0.0844293 8.75111 0.00210138 11.7043C-0.00135777 11.8268 -0.000527548 11.9497 0.00445363 12.0723V53.8554C0.00445363 57.0362 2.31766 60 5.49842 60H52.342C55.5228 60 57.836 57.0362 57.836 53.8554V12.0723C57.9569 9.12041 55.6618 6.6294 52.7099 6.50847ZM40.3419 2.89158H44.8239V10.8433H40.3419V2.89158ZM13.2335 2.89158H17.3541V10.8433H13.2335V2.89158ZM54.9444 53.8554C54.9444 55.4458 53.9324 57.1084 52.342 57.1084H5.49856C3.90818 57.1084 2.89617 55.4458 2.89617 53.8554V23.1326H54.9444V53.8554ZM54.9444 12.0723V20.241H2.89603V12.0723C2.77358 10.7205 3.77023 9.52527 5.12206 9.40281C5.24715 9.39147 5.37306 9.38981 5.49842 9.39769H10.125V10.9881C10.125 12.5785 11.643 13.7351 13.2334 13.7351H17.4985C18.9751 13.7756 20.2049 12.6112 20.2455 11.1346C20.2469 11.0858 20.2469 11.0369 20.2455 10.9881V9.39755H37.5949V10.9879C37.5544 12.4646 38.7188 13.6944 40.1954 13.7349C40.2442 13.7363 40.2931 13.7363 40.3419 13.7349H44.6071C46.1974 13.7349 47.7155 12.5783 47.7155 10.9879V9.39755H52.342C53.6968 9.31218 54.8642 10.3412 54.9495 11.696C54.9574 11.8213 54.9558 11.9472 54.9444 12.0723Z" fill="url(#paint0_linear)"/>
<path d="M20.8961 42.8675L19.5949 50.0965C19.5434 50.4065 19.5944 50.725 19.7401 51.0036C20.1102 51.711 20.9838 51.9846 21.6913 51.6145L28.1973 48.2169L34.7033 51.6145L35.3539 51.7591C35.6675 51.7646 35.9737 51.6625 36.2213 51.4699C36.6534 51.1543 36.8757 50.626 36.7996 50.0963L35.4984 42.8674L40.7756 37.8072C41.1532 37.3991 41.2902 36.8235 41.137 36.2892C40.9423 35.7952 40.5037 35.4389 39.9804 35.3494L32.7515 34.265L29.4985 27.6867C29.3566 27.3939 29.1203 27.1574 28.8275 27.0157C28.1089 26.6677 27.2442 26.9681 26.8961 27.6867L23.6431 34.265L16.4142 35.3494C15.8909 35.4388 15.4522 35.7952 15.2575 36.2892C15.1044 36.8235 15.2415 37.3991 15.619 37.8072L20.8961 42.8675ZM24.8721 37.0121C25.326 36.9442 25.7107 36.642 25.8841 36.2169L28.1973 31.5904L30.5105 36.2169C30.684 36.642 31.0685 36.9442 31.5225 37.0121L36.6551 37.735L32.9683 41.2771C32.6249 41.6171 32.4638 42.1003 32.5345 42.5783L33.4019 47.7109L28.8477 45.2531L28.1971 45.1085L27.5465 45.2531L22.9924 47.7109L23.8598 42.5783C23.9306 42.1003 23.7694 41.6171 23.426 41.2771L19.7392 37.735L24.8721 37.0121Z" fill="url(#paint1_linear)"/>
<defs>
<linearGradient id="paint0_linear" x1="-1.08812e-06" y1="35.7" x2="57.8415" y2="36.5364" gradientUnits="userSpaceOnUse">
<stop stop-color="#E5001C"/>
<stop offset="1" stop-color="#FF9315"/>
</linearGradient>
<linearGradient id="paint1_linear" x1="15.196" y1="41.6915" x2="41.1981" y2="42.0986" gradientUnits="userSpaceOnUse">
<stop stop-color="#E5001C"/>
<stop offset="1" stop-color="#FF9315"/>
</linearGradient>
</defs>
</svg>
