<svg width="60" height="60" viewBox="0 0 60 60" fill="none" xmlns="http://www.w3.org/2000/svg">
<path fill-rule="evenodd" clip-rule="evenodd" d="M49.1016 19.1016C49.1016 29.6343 40.5327 38.2031 30 38.2031C19.4673 38.2031 10.8984 29.6343 10.8984 19.1016C10.8984 8.56885 19.4673 0 30 0C40.5327 0 49.1016 8.56885 49.1016 19.1016ZM30 10.8984C27.4008 10.8984 25.2869 13.0124 25.2869 15.6116C25.2869 18.2107 27.4008 20.3252 30 20.3252C32.5992 20.3252 34.7131 18.2107 34.7131 15.6116C34.7131 13.0124 32.5992 10.8984 30 10.8984ZM21.0338 31.8434C23.5712 33.6342 26.6647 34.6875 30 34.6875C33.3353 34.6875 36.4288 33.6342 38.9662 31.8434C39.2555 31.6393 39.5366 31.4264 39.8099 31.2048C38.5629 26.884 34.5831 23.8408 30 23.8408C27.2717 23.8408 24.7078 24.9037 22.7788 26.8323C21.5483 28.0627 20.6648 29.5592 20.1901 31.2048C20.4634 31.4264 20.7445 31.6393 21.0338 31.8434ZM45.5859 19.1016C45.5859 10.5071 38.5945 3.51562 30 3.51562C21.4055 3.51562 14.4141 10.5071 14.4141 19.1016C14.4141 22.5787 15.558 25.7917 17.4902 28.3873C18.1664 26.8945 19.1098 25.5281 20.2922 24.3457C21.4746 23.1633 22.8342 22.2235 24.3118 21.552C22.7472 20.0542 21.7712 17.9448 21.7712 15.6116C21.7712 11.0742 25.4626 7.38281 30 7.38281C34.5374 7.38281 38.2288 11.0742 38.2288 15.6116C38.2288 17.9462 37.2514 20.0565 35.685 21.5557C38.6861 22.9207 41.1314 25.3405 42.5098 28.3887C44.4411 25.7932 45.5859 22.5787 45.5859 19.1016ZM0 43.0078V60H60V43.0078H0ZM3.51562 46.5234H44.5898V56.4844H3.51562V46.5234ZM56.4844 56.4844H48.1055V46.5234H56.4844V56.4844ZM9.31641 49.7461H12.832V53.2617H9.31641V49.7461ZM19.3359 49.7461H15.8203V53.2617H19.3359V49.7461ZM22.3242 49.7461H25.8398V53.2617H22.3242V49.7461ZM32.3438 49.7461H28.8281V53.2617H32.3438V49.7461ZM35.332 49.7461H38.8477V53.2617H35.332V49.7461Z" fill="url(#paint0_linear)"/>
<defs>
<linearGradient id="paint0_linear" x1="-1.12874e-06" y1="35.7" x2="60" y2="36.6" gradientUnits="userSpaceOnUse">
<stop stop-color="#E5001C"/>
<stop offset="1" stop-color="#FF9315"/>
</linearGradient>
</defs>
</svg>
