<svg width="60" height="60" viewBox="0 0 60 60" fill="none" xmlns="http://www.w3.org/2000/svg">
<path fill-rule="evenodd" clip-rule="evenodd" d="M3 3H57V12H3V3ZM3 15V45H36.3781C37.7102 39.8243 42.4084 36 48 36C51.5841 36 54.8011 37.5713 57 40.0625V15H3ZM60 48V45V3V0H57H3H0V3V45V48H3H36C36 54.6274 41.3726 60 48 60C54.6274 60 60 54.6274 60 48ZM9 7.5C9 8.32843 8.32837 9 7.5 9C6.67163 9 6 8.32843 6 7.5C6 6.67157 6.67163 6 7.5 6C8.32837 6 9 6.67157 9 7.5ZM15 7.5C15 8.32843 14.3284 9 13.5 9C12.6716 9 12 8.32843 12 7.5C12 6.67157 12.6716 6 13.5 6C14.3284 6 15 6.67157 15 7.5ZM19.5 9C20.3284 9 21 8.32843 21 7.5C21 6.67157 20.3284 6 19.5 6C18.6716 6 18 6.67157 18 7.5C18 8.32843 18.6716 9 19.5 9ZM7 21V24H29V21H7ZM7 27V30H29V27H7ZM32 30V27H53V30H32ZM7 33V36H29V33H7ZM32 24V21H53V24H32ZM48 57C52.9706 57 57 52.9706 57 48C57 43.0294 52.9706 39 48 39C43.0294 39 39 43.0294 39 48C39 52.9706 43.0294 57 48 57ZM53 47H49V43H47V47H43V49H47V53H49V49H53V47Z" fill="url(#paint0_linear)"/>
<defs>
<linearGradient id="paint0_linear" x1="-1.12874e-06" y1="35.7" x2="60" y2="36.6" gradientUnits="userSpaceOnUse">
<stop stop-color="#E5001C"/>
<stop offset="1" stop-color="#FF9315"/>
</linearGradient>
</defs>
</svg>
