<svg width="80" height="80" viewBox="0 0 80 80" fill="none" xmlns="http://www.w3.org/2000/svg">
<rect width="80" height="80" fill="url(#paint0_linear)"/>
<path fill-rule="evenodd" clip-rule="evenodd" d="M24.4277 20C23.5405 20 22.8215 20.7191 22.8215 21.6062V24.7938V24.8H19.6062C18.719 24.8 18 25.5192 18 26.4062V58.3939C18 59.2809 18.719 60 19.6062 60H61.3938C62.281 60 63 59.2809 63 58.3938V26.4062C63 25.5192 62.281 24.8 61.3938 24.8H58.1785C58.1785 24.798 58.1785 24.7959 58.1785 24.7938V21.6062C58.1785 20.7191 57.4592 20 56.5723 20H54.9631C54.0759 20 53.3569 20.7191 53.3569 21.6062V24.7938C53.3569 24.7959 53.3569 24.798 53.3569 24.8H27.6431V24.7938V21.6062C27.6431 20.7191 26.9238 20 26.0369 20H24.4277ZM22.8215 35.2032C22.8215 34.7596 23.1812 34.4001 23.6245 34.4001H57.3755C57.8191 34.4001 58.1787 34.7596 58.1787 35.2032V51.9878C58.1787 53.762 56.7405 55.2002 54.9663 55.2002H26.0339C24.2598 55.2002 22.8215 53.762 22.8215 51.9878V35.2032ZM27.6428 44.0061C27.6428 43.119 28.3618 42.3999 29.249 42.3999H30.8582C31.7451 42.3999 32.4644 43.119 32.4644 44.0061V45.5938C32.4644 46.4808 31.7451 47.2 30.8582 47.2H29.249C28.3621 47.2 27.6428 46.4808 27.6428 45.5938V44.0061ZM37.2847 44C36.3975 44 35.6785 44.7191 35.6785 45.6062V47.1938C35.6785 48.0809 36.3977 48.8 37.2847 48.8H43.7151C44.6023 48.8 45.3213 48.0809 45.3213 47.1938V45.6062C45.3213 44.7191 44.6023 44 43.7151 44H37.2847ZM48.5359 44.0061C48.5359 43.119 49.2549 42.3999 50.1421 42.3999H51.7512C52.6382 42.3999 53.3574 43.119 53.3574 44.0061V45.5938C53.3574 46.4808 52.6382 47.2 51.7512 47.2H50.1421C49.2551 47.2 48.5359 46.4808 48.5359 45.5938V44.0061Z" fill="white"/>
<defs>
<linearGradient id="paint0_linear" x1="2.02765" y1="40" x2="76.3134" y2="40" gradientUnits="userSpaceOnUse">
<stop stop-color="#EE0C28"/>
<stop offset="1" stop-color="#FF9315"/>
</linearGradient>
</defs>
</svg>
