<svg width="130" height="130" viewBox="108 21 130 130" fill="none" xmlns="http://www.w3.org/2000/svg">
<rect opacity="0.32" width="130" height="307" fill="white"/>
<path fill-rule="evenodd" clip-rule="evenodd" d="M172 148C206.242 148 234 120.242 234 86C234 51.7583 206.242 24 172 24C137.758 24 110 51.7583 110 86C110 120.242 137.758 148 172 148ZM172 141C202.376 141 227 116.376 227 86C227 55.6243 202.376 31 172 31C141.624 31 117 55.6243 117 86C117 116.376 141.624 141 172 141Z" fill="#6202EE"/>
<path fill-rule="evenodd" clip-rule="evenodd" d="M219.06 126.367C207.689 139.611 190.824 148 172 148C137.758 148 110 120.242 110 86C110 51.7583 137.758 24 172 24V31C141.624 31 117 55.6243 117 86C117 116.376 141.624 141 172 141C188.729 141 203.714 133.531 213.802 121.745L219.06 126.367Z" fill="#86CCFF"/>
<path fill-rule="evenodd" clip-rule="evenodd" d="M172 148C190.824 148 207.689 139.611 219.06 126.367L213.802 121.745C203.714 133.531 188.729 141 172 141C154.77 141 139.391 133.077 129.306 120.676L123.679 124.851C135.044 138.967 152.467 148 172 148Z" fill="#FA15FF"/>
</svg>
