<svg width="24" height="18" viewBox="0 0 24 18" fill="none" xmlns="http://www.w3.org/2000/svg">
<path d="M2 18L17 18C17.69 18 18.23 17.65 18.59 17.12L24 9L18.59 0.89C18.23 0.359999 17.62 5.57757e-07 16.93 6.18079e-07L2 1.9233e-06C0.899998 2.01947e-06 -1.49493e-06 0.900002 -1.39876e-06 2L-1.74846e-07 16C-7.86805e-08 17.1 0.9 18 2 18ZM15 7.5C15.83 7.5 16.5 8.17 16.5 9C16.5 9.83 15.83 10.5 15 10.5C14.17 10.5 13.5 9.83 13.5 9C13.5 8.17 14.17 7.5 15 7.5ZM10 7.5C10.83 7.5 11.5 8.17 11.5 9C11.5 9.83 10.83 10.5 10 10.5C9.17 10.5 8.5 9.83 8.5 9C8.5 8.17 9.17 7.5 10 7.5ZM5 7.5C5.83 7.5 6.5 8.17 6.5 9C6.5 9.83 5.83 10.5 5 10.5C4.17 10.5 3.5 9.83 3.5 9C3.5 8.17 4.17 7.5 5 7.5Z" fill="#EE0C28" fill-opacity="0.54"/>
</svg>
