<svg width="24" height="14" viewBox="0 0 24 14" fill="none" xmlns="http://www.w3.org/2000/svg">
<path fill-rule="evenodd" clip-rule="evenodd" d="M20.6554 8.63593C21.4515 9.4132 22.2918 10.1445 23.0058 11.0001C23.3212 11.3804 23.6199 11.7727 23.8483 12.214C24.172 12.8413 23.8788 13.5316 23.3163 13.569L19.82 13.5675C18.9182 13.6423 18.1988 13.2793 17.5939 12.6627C17.1098 12.1696 16.6615 11.6448 16.1961 11.1351C16.0052 10.9268 15.8055 10.7308 15.5669 10.5758C15.0896 10.266 14.6753 10.3609 14.4025 10.8587C14.1247 11.365 14.0617 11.9256 14.0344 12.4899C13.997 13.3132 13.7481 13.5297 12.9211 13.5674C11.1537 13.6507 9.47629 13.3833 7.91806 12.4917C6.54426 11.7057 5.47894 10.5961 4.5517 9.33986C2.74634 6.89373 1.36379 4.20584 0.121208 1.44263C-0.158487 0.820081 0.0460603 0.485898 0.732957 0.47407C1.87358 0.451912 3.01405 0.45349 4.15601 0.472494C4.61959 0.479275 4.92649 0.74517 5.10549 1.18313C5.7226 2.70051 6.47771 4.14417 7.42553 5.48232C7.67794 5.83859 7.93532 6.19485 8.30184 6.4456C8.7073 6.72325 9.01602 6.63123 9.20677 6.17955C9.32781 5.89315 9.3808 5.58468 9.40808 5.27794C9.49845 4.22263 9.51035 3.16914 9.35186 2.11755C9.25455 1.46124 8.88488 1.03638 8.23 0.912183C7.89582 0.848863 7.94558 0.724511 8.10738 0.533763C8.38842 0.204784 8.65274 0 9.17964 0H13.1311C13.7532 0.122776 13.8913 0.402234 13.9765 1.02818L13.9799 5.41743C13.9731 5.65975 14.1009 6.37882 14.5374 6.5392C14.8867 6.65338 15.117 6.37393 15.3265 6.15243C16.2726 5.1483 16.9479 3.96162 17.5511 2.73284C17.8188 2.19254 18.049 1.63141 18.2721 1.07076C18.4373 0.654725 18.6967 0.45002 19.1653 0.459088L22.9684 0.462479C23.0811 0.462479 23.1952 0.464135 23.3044 0.482823C23.9453 0.592036 24.1209 0.86771 23.923 1.49349C23.6111 2.47531 23.0043 3.2935 22.411 4.11547C21.7768 4.99304 21.0985 5.84056 20.4696 6.72333C19.8917 7.52945 19.9376 7.93579 20.6554 8.63593Z" fill="white"/>
</svg>
